<svg version="1" xmlns="http://www.w3.org/2000/svg" width="1134.667" height="1134.667" viewBox="0 0 851.000000 851.000000"><path d="M0 425.5V851h851V0H0v425.5zM429.9 87.6c1.3 1.2 9.6 55.3 12.6 82.4 2.5 22.3 8.2 68.2 11.5 91.5 1.6 11.5 3.9 29.5 5 40 2.3 20.8 5.1 40.4 10.4 73.7 1.9 11.9 4.7 31.4 6.2 43.2 2.5 19.7 3 21.6 4.7 21.6 3.1 0 29-4.5 71.7-12.5 51.3-9.5 47.9-9 48.6-7.1 4.4 11.4-25.2 27.5-88.3 48.2-30.3 9.9-27.3 6.8-24.8 24.4 2.1 14.5 12.8 76.6 23.6 136.5 12 66.7 15.8 90.7 16.6 104.7l.6 11.8h-8.2c-8.6 0-11-.7-19.2-5.9-2.5-1.6-6.2-3.5-8.2-4.2-4.2-1.5-3.8-.4-6.3-19.9-2.9-23.4-8.5-60.4-15.4-102-7.5-45.1-11.7-74-15-103.5-2.9-25.7-2.2-23.5-6.7-22.4-48.8 11.6-85.7 19.6-107.7 23.3-4.9.9-9 1.7-9.1 1.8-1.2 1.4-17 78.7-26 127.3-1.4 7.7-3.5 17.1-4.6 20.8-2.3 8-4.6 9.9-14.5 11.7-7.2 1.4-12 .8-17.7-2.2l-4-2 .6-6.3c1.2-12.8 16.6-80.2 27.8-121.3 3.3-12.3 5.8-22.6 5.6-22.8-.3-.3-9 .1-19.3.8-10.4.7-27.4 1.3-37.9 1.3-28 0-35.4-2-41.8-11.1-2.1-3-2.7-4.8-2.2-6.3 1.1-3.5 11.3-13.9 14.3-14.5 1.5-.3 11.5-1.2 22.2-2.1 19.7-1.6 43.1-4.3 61.6-7.1l10-1.6 9.3-35.1c21.2-79.9 41.6-163.8 65.5-268.7 18.7-82 16.9-75.3 21-80.3 3.7-4.6 6.5-6.4 10.6-6.9 2.8-.4 16.3.3 16.9.8z"/><path d="M410.5 198.2c-.5 1.4-17.9 67.8-33.1 126.2-16 61.5-35.1 147.2-33.2 149.1.7.8 44.4-8.1 63.4-12.9 9.9-2.4 21.4-5.2 25.7-6.1l7.7-1.7v-3.3c0-1.8-1.3-16.7-2.9-33.1-1.7-16.5-4.2-42.3-5.6-57.4-4.1-43.3-16.5-148.2-18.6-157.3-1.1-4.6-2.5-6-3.4-3.5z"/></svg>